<svg xmlns="http://www.w3.org/2000/svg" width="26" height="26"><g fill-rule="evenodd" transform="translate(0 -1026.362)"><circle cx="13" cy="1039.362" r="13" fill="#fff"/><path style="line-height:normal;text-indent:0;text-align:start;text-decoration-line:none;text-decoration-style:solid;text-decoration-color:#000;text-transform:none;block-progression:tb;isolation:auto;mix-blend-mode:normal" fill="#8e8989" d="M18.447 24.787a13 13 0 0 0 .45-.201 13 13 0 0 0 1.126-.647 13 13 0 0 0 1.057-.755 13 13 0 0 0 .977-.858 13 13 0 0 0 .886-.951 13 13 0 0 0 .786-1.035 13 13 0 0 0 .232-.38L17 13l-5.3-5-.7.66 4.467 4.467L11 17.34l7.447 7.447z" color="#000" font-family="sans-serif" font-weight="400" transform="translate(0 1026.362)"/><path style="line-height:normal;text-indent:0;text-align:start;text-decoration-line:none;text-decoration-style:solid;text-decoration-color:#000;text-transform:none;block-progression:tb;isolation:auto;mix-blend-mode:normal" fill="#131c28" d="m11.28 1044.83-4.97-4.69-.656.62 4.313 4.07-4.313 4.069.656.619 4.97-4.689z" color="#000" font-family="sans-serif" font-weight="400" overflow="visible" transform="translate(4.97 -74.863) scale(1.06642)"/></g></svg>