<svg xmlns="http://www.w3.org/2000/svg" width="26" height="26"><g transform="translate(0 -1026.362)"><circle cx="13" cy="1039.362" r="13" fill="#fff"/><path fill="#8e8989" fill-rule="evenodd" style="line-height:normal;text-indent:0;text-align:start;text-decoration-line:none;text-decoration-style:solid;text-decoration-color:#000;text-transform:none;block-progression:tb;isolation:auto;mix-blend-mode:normal" d="M19.97 23.97a13 13 0 0 0 .053-.03 13 13 0 0 0 1.057-.756 13 13 0 0 0 .977-.858 13 13 0 0 0 .886-.951 13 13 0 0 0 .786-1.035 13 13 0 0 0 .68-1.108 13 13 0 0 0 .378-.785L15 8.66 14.3 8 9 13l10.97 10.97z" color="#000" font-family="sans-serif" font-weight="400" transform="translate(0 1026.362)"/><path fill="#131c28" fill-rule="evenodd" style="line-height:normal;text-indent:0;text-align:start;text-decoration-line:none;text-decoration-style:solid;text-decoration-color:#000;text-transform:none;block-progression:tb;isolation:auto;mix-blend-mode:normal" d="m5.654 1044.83 4.97 4.688.656-.62-4.313-4.069 4.313-4.07-.655-.618-4.971 4.688z" color="#000" font-family="sans-serif" font-weight="400" overflow="visible" transform="translate(2.97 -74.863) scale(1.06642)"/></g></svg>